<svg width="31" height="29" viewBox="0 0 31 29" fill="none" xmlns="http://www.w3.org/2000/svg">
<path d="M25.8945 0.691406L28.7656 4.38281C27.6719 5.39844 26.6172 6.96094 25.6016 9.07031C24.625 11.1406 24.0977 13.7578 24.0195 16.9219L30.0547 17.6836V28.6992H18.3359V23.4844C18.3359 23.0156 18.3555 22.0391 18.3945 20.5547C18.4336 19.0312 18.4727 18.0156 18.5117 17.5078C18.5508 16.9609 18.6094 16.043 18.6875 14.7539C18.7656 13.4648 18.8828 12.5273 19.0391 11.9414C19.1953 11.3555 19.3906 10.5352 19.625 9.48047C19.8594 8.42578 20.1523 7.58594 20.5039 6.96094C20.8945 6.33594 21.3242 5.61328 21.793 4.79297C22.3008 3.97266 22.8867 3.25 23.5508 2.625C24.2539 1.96094 25.0352 1.31641 25.8945 0.691406ZM8.66797 0.691406L11.5391 4.38281C10.4453 5.39844 9.39062 6.96094 8.375 9.07031C7.39844 11.1406 6.87109 13.7383 6.79297 16.8633L12.4766 17.6836V28.6992H0.757812V23.4844C0.757812 21.1016 0.777344 19.2852 0.816406 18.0352C0.855469 16.7852 1.01172 15.1836 1.28516 13.2305C1.55859 11.2383 1.94922 9.61719 2.45703 8.36719C3.00391 7.11719 3.78516 5.78906 4.80078 4.38281C5.85547 2.97656 7.14453 1.74609 8.66797 0.691406Z" fill="#DA1B4F"/>
</svg>
